<mxfile host="app.diagrams.net" modified="2024-06-17T09:19:27.961Z" agent="Mozilla/5.0 (Windows NT 10.0; Win64; x64) AppleWebKit/537.36 (KHTML, like Gecko) Chrome/125.0.0.0 Safari/537.36" version="24.5.4" etag="u1I7qphgqR3-CWbsSa4V" type="device">
  <diagram id="N5aYn-cNYP20kxAj2meb" name="Page-1">
    <mxGraphModel dx="2759" dy="2171" grid="1" gridSize="10" guides="1" tooltips="1" connect="1" arrows="1" fold="1" page="1" pageScale="1" pageWidth="850" pageHeight="1100" math="0" shadow="0">
      <root>
        <mxCell id="0" />
        <mxCell id="1" parent="0" />
        <mxCell id="YVUL6heoj1yk4s0uGR53-60" style="edgeStyle=orthogonalEdgeStyle;rounded=0;orthogonalLoop=1;jettySize=auto;html=1;exitX=1;exitY=0.5;exitDx=0;exitDy=0;entryX=0;entryY=0.5;entryDx=0;entryDy=0;endArrow=none;endFill=0;" edge="1" parent="1" source="YVUL6heoj1yk4s0uGR53-1" target="YVUL6heoj1yk4s0uGR53-49">
          <mxGeometry relative="1" as="geometry" />
        </mxCell>
        <mxCell id="YVUL6heoj1yk4s0uGR53-1" value="Zaposlenik" style="rounded=0;whiteSpace=wrap;html=1;" vertex="1" parent="1">
          <mxGeometry x="-90" y="315" width="120" height="60" as="geometry" />
        </mxCell>
        <mxCell id="YVUL6heoj1yk4s0uGR53-65" style="edgeStyle=orthogonalEdgeStyle;rounded=0;orthogonalLoop=1;jettySize=auto;html=1;exitX=0;exitY=0.25;exitDx=0;exitDy=0;entryX=1;entryY=0.5;entryDx=0;entryDy=0;endArrow=none;endFill=0;" edge="1" parent="1" source="YVUL6heoj1yk4s0uGR53-2" target="YVUL6heoj1yk4s0uGR53-57">
          <mxGeometry relative="1" as="geometry" />
        </mxCell>
        <mxCell id="YVUL6heoj1yk4s0uGR53-66" style="edgeStyle=orthogonalEdgeStyle;rounded=0;orthogonalLoop=1;jettySize=auto;html=1;exitX=0;exitY=0.75;exitDx=0;exitDy=0;entryX=1;entryY=0.5;entryDx=0;entryDy=0;endArrow=none;endFill=0;" edge="1" parent="1" source="YVUL6heoj1yk4s0uGR53-2" target="YVUL6heoj1yk4s0uGR53-52">
          <mxGeometry relative="1" as="geometry" />
        </mxCell>
        <mxCell id="YVUL6heoj1yk4s0uGR53-2" value="Kupac" style="rounded=0;whiteSpace=wrap;html=1;" vertex="1" parent="1">
          <mxGeometry x="395" y="765" width="120" height="60" as="geometry" />
        </mxCell>
        <mxCell id="YVUL6heoj1yk4s0uGR53-3" value="Ime" style="ellipse;whiteSpace=wrap;html=1;" vertex="1" parent="1">
          <mxGeometry x="-300" y="230" width="90" height="50" as="geometry" />
        </mxCell>
        <mxCell id="YVUL6heoj1yk4s0uGR53-4" value="Prezime" style="ellipse;whiteSpace=wrap;html=1;" vertex="1" parent="1">
          <mxGeometry x="-260" y="290" width="90" height="50" as="geometry" />
        </mxCell>
        <mxCell id="YVUL6heoj1yk4s0uGR53-5" value="ID" style="ellipse;whiteSpace=wrap;html=1;" vertex="1" parent="1">
          <mxGeometry x="-270" y="350" width="90" height="50" as="geometry" />
        </mxCell>
        <mxCell id="YVUL6heoj1yk4s0uGR53-6" value="Email" style="ellipse;whiteSpace=wrap;html=1;" vertex="1" parent="1">
          <mxGeometry x="-260" y="420" width="90" height="50" as="geometry" />
        </mxCell>
        <mxCell id="YVUL6heoj1yk4s0uGR53-7" value="Password" style="ellipse;whiteSpace=wrap;html=1;" vertex="1" parent="1">
          <mxGeometry x="-220" y="180" width="90" height="50" as="geometry" />
        </mxCell>
        <mxCell id="YVUL6heoj1yk4s0uGR53-9" value="" style="endArrow=none;html=1;rounded=0;exitX=1;exitY=1;exitDx=0;exitDy=0;entryX=0;entryY=0;entryDx=0;entryDy=0;" edge="1" parent="1" source="YVUL6heoj1yk4s0uGR53-3" target="YVUL6heoj1yk4s0uGR53-1">
          <mxGeometry width="50" height="50" relative="1" as="geometry">
            <mxPoint x="290" y="420" as="sourcePoint" />
            <mxPoint x="340" y="370" as="targetPoint" />
          </mxGeometry>
        </mxCell>
        <mxCell id="YVUL6heoj1yk4s0uGR53-10" value="" style="endArrow=none;html=1;rounded=0;exitX=1;exitY=0.5;exitDx=0;exitDy=0;entryX=0;entryY=0.25;entryDx=0;entryDy=0;" edge="1" parent="1" source="YVUL6heoj1yk4s0uGR53-4" target="YVUL6heoj1yk4s0uGR53-1">
          <mxGeometry width="50" height="50" relative="1" as="geometry">
            <mxPoint x="-113" y="283" as="sourcePoint" />
            <mxPoint x="-70" y="320" as="targetPoint" />
          </mxGeometry>
        </mxCell>
        <mxCell id="YVUL6heoj1yk4s0uGR53-12" value="" style="endArrow=none;html=1;rounded=0;exitX=1;exitY=0.5;exitDx=0;exitDy=0;entryX=0;entryY=0.5;entryDx=0;entryDy=0;" edge="1" parent="1" source="YVUL6heoj1yk4s0uGR53-5" target="YVUL6heoj1yk4s0uGR53-1">
          <mxGeometry width="50" height="50" relative="1" as="geometry">
            <mxPoint x="-103" y="293" as="sourcePoint" />
            <mxPoint x="-60" y="330" as="targetPoint" />
          </mxGeometry>
        </mxCell>
        <mxCell id="YVUL6heoj1yk4s0uGR53-13" value="" style="endArrow=none;html=1;rounded=0;exitX=1;exitY=0;exitDx=0;exitDy=0;entryX=0;entryY=0.75;entryDx=0;entryDy=0;" edge="1" parent="1" source="YVUL6heoj1yk4s0uGR53-6" target="YVUL6heoj1yk4s0uGR53-1">
          <mxGeometry width="50" height="50" relative="1" as="geometry">
            <mxPoint x="-93" y="303" as="sourcePoint" />
            <mxPoint x="-50" y="340" as="targetPoint" />
          </mxGeometry>
        </mxCell>
        <mxCell id="YVUL6heoj1yk4s0uGR53-62" style="edgeStyle=orthogonalEdgeStyle;rounded=0;orthogonalLoop=1;jettySize=auto;html=1;exitX=0.5;exitY=1;exitDx=0;exitDy=0;entryX=0.5;entryY=0;entryDx=0;entryDy=0;endArrow=none;endFill=0;" edge="1" parent="1" source="YVUL6heoj1yk4s0uGR53-15" target="YVUL6heoj1yk4s0uGR53-50">
          <mxGeometry relative="1" as="geometry" />
        </mxCell>
        <mxCell id="YVUL6heoj1yk4s0uGR53-15" value="Vozilo" style="rounded=0;whiteSpace=wrap;html=1;" vertex="1" parent="1">
          <mxGeometry x="395" y="315" width="120" height="60" as="geometry" />
        </mxCell>
        <mxCell id="YVUL6heoj1yk4s0uGR53-16" value="Inventar" style="rounded=0;whiteSpace=wrap;html=1;" vertex="1" parent="1">
          <mxGeometry x="400" y="510" width="120" height="60" as="geometry" />
        </mxCell>
        <mxCell id="YVUL6heoj1yk4s0uGR53-17" value="Tiket" style="rounded=0;whiteSpace=wrap;html=1;" vertex="1" parent="1">
          <mxGeometry x="-90" y="645" width="120" height="60" as="geometry" />
        </mxCell>
        <mxCell id="YVUL6heoj1yk4s0uGR53-19" value="Model" style="ellipse;whiteSpace=wrap;html=1;" vertex="1" parent="1">
          <mxGeometry x="270" y="218" width="90" height="50" as="geometry" />
        </mxCell>
        <mxCell id="YVUL6heoj1yk4s0uGR53-20" value="Specifikacije" style="ellipse;whiteSpace=wrap;html=1;" vertex="1" parent="1">
          <mxGeometry x="565" y="195" width="90" height="50" as="geometry" />
        </mxCell>
        <mxCell id="YVUL6heoj1yk4s0uGR53-21" value="Vrsta" style="ellipse;whiteSpace=wrap;html=1;" vertex="1" parent="1">
          <mxGeometry x="495" y="105" width="90" height="50" as="geometry" />
        </mxCell>
        <mxCell id="YVUL6heoj1yk4s0uGR53-22" value="Godina" style="ellipse;whiteSpace=wrap;html=1;" vertex="1" parent="1">
          <mxGeometry x="330" y="145" width="90" height="50" as="geometry" />
        </mxCell>
        <mxCell id="YVUL6heoj1yk4s0uGR53-113" style="edgeStyle=orthogonalEdgeStyle;rounded=0;orthogonalLoop=1;jettySize=auto;html=1;exitX=0.5;exitY=1;exitDx=0;exitDy=0;entryX=0.5;entryY=0;entryDx=0;entryDy=0;endArrow=none;endFill=0;" edge="1" parent="1" source="YVUL6heoj1yk4s0uGR53-24" target="YVUL6heoj1yk4s0uGR53-112">
          <mxGeometry relative="1" as="geometry" />
        </mxCell>
        <mxCell id="YVUL6heoj1yk4s0uGR53-24" value="Superadmin" style="rounded=0;whiteSpace=wrap;html=1;" vertex="1" parent="1">
          <mxGeometry x="-80" y="35" width="120" height="60" as="geometry" />
        </mxCell>
        <mxCell id="YVUL6heoj1yk4s0uGR53-25" value="Cijena" style="ellipse;whiteSpace=wrap;html=1;" vertex="1" parent="1">
          <mxGeometry x="410" y="90" width="90" height="50" as="geometry" />
        </mxCell>
        <mxCell id="YVUL6heoj1yk4s0uGR53-26" value="" style="endArrow=none;html=1;rounded=0;entryX=1;entryY=1;entryDx=0;entryDy=0;exitX=0;exitY=0;exitDx=0;exitDy=0;" edge="1" parent="1" source="YVUL6heoj1yk4s0uGR53-15" target="YVUL6heoj1yk4s0uGR53-19">
          <mxGeometry width="50" height="50" relative="1" as="geometry">
            <mxPoint x="395" y="335" as="sourcePoint" />
            <mxPoint x="445" y="285" as="targetPoint" />
          </mxGeometry>
        </mxCell>
        <mxCell id="YVUL6heoj1yk4s0uGR53-27" value="" style="endArrow=none;html=1;rounded=0;entryX=0.5;entryY=1;entryDx=0;entryDy=0;exitX=0.167;exitY=0.04;exitDx=0;exitDy=0;exitPerimeter=0;" edge="1" parent="1" source="YVUL6heoj1yk4s0uGR53-15" target="YVUL6heoj1yk4s0uGR53-22">
          <mxGeometry width="50" height="50" relative="1" as="geometry">
            <mxPoint x="405" y="345" as="sourcePoint" />
            <mxPoint x="455" y="295" as="targetPoint" />
          </mxGeometry>
        </mxCell>
        <mxCell id="YVUL6heoj1yk4s0uGR53-28" value="" style="endArrow=none;html=1;rounded=0;entryX=0.5;entryY=1;entryDx=0;entryDy=0;exitX=0.25;exitY=0;exitDx=0;exitDy=0;" edge="1" parent="1" source="YVUL6heoj1yk4s0uGR53-15" target="YVUL6heoj1yk4s0uGR53-25">
          <mxGeometry width="50" height="50" relative="1" as="geometry">
            <mxPoint x="415" y="355" as="sourcePoint" />
            <mxPoint x="465" y="305" as="targetPoint" />
          </mxGeometry>
        </mxCell>
        <mxCell id="YVUL6heoj1yk4s0uGR53-29" value="" style="endArrow=none;html=1;rounded=0;entryX=0;entryY=1;entryDx=0;entryDy=0;exitX=0.5;exitY=0;exitDx=0;exitDy=0;" edge="1" parent="1" source="YVUL6heoj1yk4s0uGR53-15" target="YVUL6heoj1yk4s0uGR53-21">
          <mxGeometry width="50" height="50" relative="1" as="geometry">
            <mxPoint x="425" y="365" as="sourcePoint" />
            <mxPoint x="475" y="315" as="targetPoint" />
          </mxGeometry>
        </mxCell>
        <mxCell id="YVUL6heoj1yk4s0uGR53-30" value="" style="endArrow=none;html=1;rounded=0;entryX=0;entryY=0.5;entryDx=0;entryDy=0;exitX=0.75;exitY=0;exitDx=0;exitDy=0;" edge="1" parent="1" source="YVUL6heoj1yk4s0uGR53-15" target="YVUL6heoj1yk4s0uGR53-20">
          <mxGeometry width="50" height="50" relative="1" as="geometry">
            <mxPoint x="435" y="375" as="sourcePoint" />
            <mxPoint x="485" y="325" as="targetPoint" />
          </mxGeometry>
        </mxCell>
        <mxCell id="YVUL6heoj1yk4s0uGR53-31" value="Ime" style="ellipse;whiteSpace=wrap;html=1;" vertex="1" parent="1">
          <mxGeometry x="550" y="825" width="90" height="50" as="geometry" />
        </mxCell>
        <mxCell id="YVUL6heoj1yk4s0uGR53-32" value="Prezime" style="ellipse;whiteSpace=wrap;html=1;" vertex="1" parent="1">
          <mxGeometry x="530" y="880" width="90" height="50" as="geometry" />
        </mxCell>
        <mxCell id="YVUL6heoj1yk4s0uGR53-33" value="ID" style="ellipse;whiteSpace=wrap;html=1;" vertex="1" parent="1">
          <mxGeometry x="280" y="860" width="90" height="50" as="geometry" />
        </mxCell>
        <mxCell id="YVUL6heoj1yk4s0uGR53-34" value="Email" style="ellipse;whiteSpace=wrap;html=1;" vertex="1" parent="1">
          <mxGeometry x="445" y="910" width="90" height="50" as="geometry" />
        </mxCell>
        <mxCell id="YVUL6heoj1yk4s0uGR53-35" value="Password" style="ellipse;whiteSpace=wrap;html=1;" vertex="1" parent="1">
          <mxGeometry x="345" y="910" width="90" height="50" as="geometry" />
        </mxCell>
        <mxCell id="YVUL6heoj1yk4s0uGR53-36" value="ID" style="ellipse;whiteSpace=wrap;html=1;" vertex="1" parent="1">
          <mxGeometry x="595" y="265" width="90" height="50" as="geometry" />
        </mxCell>
        <mxCell id="YVUL6heoj1yk4s0uGR53-37" value="" style="endArrow=none;html=1;rounded=0;entryX=0;entryY=0.5;entryDx=0;entryDy=0;exitX=1;exitY=0.25;exitDx=0;exitDy=0;" edge="1" parent="1" source="YVUL6heoj1yk4s0uGR53-15" target="YVUL6heoj1yk4s0uGR53-36">
          <mxGeometry width="50" height="50" relative="1" as="geometry">
            <mxPoint x="505" y="325" as="sourcePoint" />
            <mxPoint x="575" y="230" as="targetPoint" />
          </mxGeometry>
        </mxCell>
        <mxCell id="YVUL6heoj1yk4s0uGR53-39" value="Narudžba" style="rounded=0;whiteSpace=wrap;html=1;" vertex="1" parent="1">
          <mxGeometry x="760" y="510" width="120" height="60" as="geometry" />
        </mxCell>
        <mxCell id="YVUL6heoj1yk4s0uGR53-40" value="" style="endArrow=none;html=1;rounded=0;exitX=0.5;exitY=0;exitDx=0;exitDy=0;entryX=0;entryY=1;entryDx=0;entryDy=0;" edge="1" parent="1" source="YVUL6heoj1yk4s0uGR53-33" target="YVUL6heoj1yk4s0uGR53-2">
          <mxGeometry width="50" height="50" relative="1" as="geometry">
            <mxPoint x="410" y="770" as="sourcePoint" />
            <mxPoint x="460" y="720" as="targetPoint" />
          </mxGeometry>
        </mxCell>
        <mxCell id="YVUL6heoj1yk4s0uGR53-41" value="" style="endArrow=none;html=1;rounded=0;exitX=0.427;exitY=-0.056;exitDx=0;exitDy=0;exitPerimeter=0;entryX=0.25;entryY=1;entryDx=0;entryDy=0;" edge="1" parent="1" source="YVUL6heoj1yk4s0uGR53-35" target="YVUL6heoj1yk4s0uGR53-2">
          <mxGeometry width="50" height="50" relative="1" as="geometry">
            <mxPoint x="420" y="780" as="sourcePoint" />
            <mxPoint x="470" y="730" as="targetPoint" />
          </mxGeometry>
        </mxCell>
        <mxCell id="YVUL6heoj1yk4s0uGR53-42" value="" style="endArrow=none;html=1;rounded=0;exitX=0;exitY=0;exitDx=0;exitDy=0;entryX=0.5;entryY=1;entryDx=0;entryDy=0;" edge="1" parent="1" source="YVUL6heoj1yk4s0uGR53-34" target="YVUL6heoj1yk4s0uGR53-2">
          <mxGeometry width="50" height="50" relative="1" as="geometry">
            <mxPoint x="430" y="790" as="sourcePoint" />
            <mxPoint x="452" y="862" as="targetPoint" />
          </mxGeometry>
        </mxCell>
        <mxCell id="YVUL6heoj1yk4s0uGR53-43" value="" style="endArrow=none;html=1;rounded=0;exitX=0.04;exitY=0.312;exitDx=0;exitDy=0;exitPerimeter=0;entryX=0.75;entryY=1;entryDx=0;entryDy=0;" edge="1" parent="1" source="YVUL6heoj1yk4s0uGR53-32" target="YVUL6heoj1yk4s0uGR53-2">
          <mxGeometry width="50" height="50" relative="1" as="geometry">
            <mxPoint x="440" y="800" as="sourcePoint" />
            <mxPoint x="490" y="750" as="targetPoint" />
          </mxGeometry>
        </mxCell>
        <mxCell id="YVUL6heoj1yk4s0uGR53-44" value="" style="endArrow=none;html=1;rounded=0;entryX=0;entryY=0;entryDx=0;entryDy=0;exitX=1;exitY=1;exitDx=0;exitDy=0;" edge="1" parent="1" source="YVUL6heoj1yk4s0uGR53-2" target="YVUL6heoj1yk4s0uGR53-31">
          <mxGeometry width="50" height="50" relative="1" as="geometry">
            <mxPoint x="530" y="860" as="sourcePoint" />
            <mxPoint x="500" y="760" as="targetPoint" />
          </mxGeometry>
        </mxCell>
        <mxCell id="YVUL6heoj1yk4s0uGR53-45" value="Status" style="ellipse;whiteSpace=wrap;html=1;" vertex="1" parent="1">
          <mxGeometry x="-300" y="565" width="90" height="50" as="geometry" />
        </mxCell>
        <mxCell id="YVUL6heoj1yk4s0uGR53-78" style="edgeStyle=orthogonalEdgeStyle;rounded=0;orthogonalLoop=1;jettySize=auto;html=1;exitX=1;exitY=0.5;exitDx=0;exitDy=0;entryX=0;entryY=0.5;entryDx=0;entryDy=0;endArrow=none;endFill=0;" edge="1" parent="1" source="YVUL6heoj1yk4s0uGR53-46" target="YVUL6heoj1yk4s0uGR53-17">
          <mxGeometry relative="1" as="geometry" />
        </mxCell>
        <mxCell id="YVUL6heoj1yk4s0uGR53-46" value="ID" style="ellipse;whiteSpace=wrap;html=1;" vertex="1" parent="1">
          <mxGeometry x="-310" y="665" width="90" height="50" as="geometry" />
        </mxCell>
        <mxCell id="YVUL6heoj1yk4s0uGR53-47" value="ZaposlenikID" style="ellipse;whiteSpace=wrap;html=1;" vertex="1" parent="1">
          <mxGeometry x="-300" y="840" width="90" height="50" as="geometry" />
        </mxCell>
        <mxCell id="YVUL6heoj1yk4s0uGR53-48" value="KupacID" style="ellipse;whiteSpace=wrap;html=1;" vertex="1" parent="1">
          <mxGeometry x="-300" y="765" width="90" height="50" as="geometry" />
        </mxCell>
        <mxCell id="YVUL6heoj1yk4s0uGR53-61" style="edgeStyle=orthogonalEdgeStyle;rounded=0;orthogonalLoop=1;jettySize=auto;html=1;exitX=1;exitY=0.5;exitDx=0;exitDy=0;entryX=0;entryY=0.5;entryDx=0;entryDy=0;endArrow=none;endFill=0;" edge="1" parent="1" source="YVUL6heoj1yk4s0uGR53-49" target="YVUL6heoj1yk4s0uGR53-15">
          <mxGeometry relative="1" as="geometry" />
        </mxCell>
        <mxCell id="YVUL6heoj1yk4s0uGR53-49" value="Radi Na" style="rhombus;whiteSpace=wrap;html=1;" vertex="1" parent="1">
          <mxGeometry x="160" y="315" width="80" height="60" as="geometry" />
        </mxCell>
        <mxCell id="YVUL6heoj1yk4s0uGR53-63" style="edgeStyle=orthogonalEdgeStyle;rounded=0;orthogonalLoop=1;jettySize=auto;html=1;exitX=0.5;exitY=1;exitDx=0;exitDy=0;endArrow=none;endFill=0;" edge="1" parent="1" source="YVUL6heoj1yk4s0uGR53-50" target="YVUL6heoj1yk4s0uGR53-16">
          <mxGeometry relative="1" as="geometry" />
        </mxCell>
        <mxCell id="YVUL6heoj1yk4s0uGR53-50" value="Pripada" style="rhombus;whiteSpace=wrap;html=1;" vertex="1" parent="1">
          <mxGeometry x="420" y="410" width="80" height="60" as="geometry" />
        </mxCell>
        <mxCell id="YVUL6heoj1yk4s0uGR53-52" value="Prima" style="rhombus;whiteSpace=wrap;html=1;" vertex="1" parent="1">
          <mxGeometry x="115" y="798" width="80" height="60" as="geometry" />
        </mxCell>
        <mxCell id="YVUL6heoj1yk4s0uGR53-73" style="edgeStyle=orthogonalEdgeStyle;rounded=0;orthogonalLoop=1;jettySize=auto;html=1;exitX=0.5;exitY=1;exitDx=0;exitDy=0;entryX=0.5;entryY=0;entryDx=0;entryDy=0;endArrow=none;endFill=0;" edge="1" parent="1" source="YVUL6heoj1yk4s0uGR53-53" target="YVUL6heoj1yk4s0uGR53-2">
          <mxGeometry relative="1" as="geometry" />
        </mxCell>
        <mxCell id="YVUL6heoj1yk4s0uGR53-53" value="Pregledava" style="rhombus;whiteSpace=wrap;html=1;" vertex="1" parent="1">
          <mxGeometry x="415" y="650" width="80" height="60" as="geometry" />
        </mxCell>
        <mxCell id="YVUL6heoj1yk4s0uGR53-54" value="Šalje" style="rhombus;whiteSpace=wrap;html=1;" vertex="1" parent="1">
          <mxGeometry x="-20" y="490" width="80" height="60" as="geometry" />
        </mxCell>
        <mxCell id="YVUL6heoj1yk4s0uGR53-55" value="Prima" style="rhombus;whiteSpace=wrap;html=1;" vertex="1" parent="1">
          <mxGeometry x="-110" y="490" width="80" height="60" as="geometry" />
        </mxCell>
        <mxCell id="YVUL6heoj1yk4s0uGR53-57" value="Šalje" style="rhombus;whiteSpace=wrap;html=1;" vertex="1" parent="1">
          <mxGeometry x="105" y="728" width="80" height="60" as="geometry" />
        </mxCell>
        <mxCell id="YVUL6heoj1yk4s0uGR53-59" value="" style="endArrow=none;html=1;rounded=0;exitX=0.5;exitY=1;exitDx=0;exitDy=0;entryX=0.123;entryY=0.03;entryDx=0;entryDy=0;entryPerimeter=0;" edge="1" parent="1" source="YVUL6heoj1yk4s0uGR53-7" target="YVUL6heoj1yk4s0uGR53-1">
          <mxGeometry width="50" height="50" relative="1" as="geometry">
            <mxPoint x="-113" y="283" as="sourcePoint" />
            <mxPoint x="-80" y="325" as="targetPoint" />
          </mxGeometry>
        </mxCell>
        <mxCell id="YVUL6heoj1yk4s0uGR53-64" style="edgeStyle=orthogonalEdgeStyle;rounded=0;orthogonalLoop=1;jettySize=auto;html=1;exitX=0;exitY=0.5;exitDx=0;exitDy=0;entryX=0.857;entryY=0.977;entryDx=0;entryDy=0;entryPerimeter=0;endArrow=none;endFill=0;" edge="1" parent="1" source="YVUL6heoj1yk4s0uGR53-57" target="YVUL6heoj1yk4s0uGR53-17">
          <mxGeometry relative="1" as="geometry" />
        </mxCell>
        <mxCell id="YVUL6heoj1yk4s0uGR53-67" style="edgeStyle=orthogonalEdgeStyle;rounded=0;orthogonalLoop=1;jettySize=auto;html=1;exitX=0;exitY=0.5;exitDx=0;exitDy=0;entryX=0.19;entryY=0.977;entryDx=0;entryDy=0;entryPerimeter=0;endArrow=none;endFill=0;" edge="1" parent="1" source="YVUL6heoj1yk4s0uGR53-52" target="YVUL6heoj1yk4s0uGR53-17">
          <mxGeometry relative="1" as="geometry" />
        </mxCell>
        <mxCell id="YVUL6heoj1yk4s0uGR53-68" style="edgeStyle=orthogonalEdgeStyle;rounded=0;orthogonalLoop=1;jettySize=auto;html=1;exitX=0.5;exitY=0;exitDx=0;exitDy=0;entryX=0.17;entryY=0.977;entryDx=0;entryDy=0;entryPerimeter=0;endArrow=none;endFill=0;" edge="1" parent="1" source="YVUL6heoj1yk4s0uGR53-55" target="YVUL6heoj1yk4s0uGR53-1">
          <mxGeometry relative="1" as="geometry" />
        </mxCell>
        <mxCell id="YVUL6heoj1yk4s0uGR53-69" style="edgeStyle=orthogonalEdgeStyle;rounded=0;orthogonalLoop=1;jettySize=auto;html=1;exitX=0.5;exitY=0;exitDx=0;exitDy=0;entryX=0.903;entryY=0.977;entryDx=0;entryDy=0;entryPerimeter=0;endArrow=none;endFill=0;" edge="1" parent="1" source="YVUL6heoj1yk4s0uGR53-54" target="YVUL6heoj1yk4s0uGR53-1">
          <mxGeometry relative="1" as="geometry" />
        </mxCell>
        <mxCell id="YVUL6heoj1yk4s0uGR53-70" style="edgeStyle=orthogonalEdgeStyle;rounded=0;orthogonalLoop=1;jettySize=auto;html=1;exitX=0.5;exitY=1;exitDx=0;exitDy=0;entryX=0.91;entryY=0.03;entryDx=0;entryDy=0;entryPerimeter=0;endArrow=none;endFill=0;" edge="1" parent="1" source="YVUL6heoj1yk4s0uGR53-54" target="YVUL6heoj1yk4s0uGR53-17">
          <mxGeometry relative="1" as="geometry" />
        </mxCell>
        <mxCell id="YVUL6heoj1yk4s0uGR53-71" style="edgeStyle=orthogonalEdgeStyle;rounded=0;orthogonalLoop=1;jettySize=auto;html=1;exitX=0.5;exitY=1;exitDx=0;exitDy=0;endArrow=none;endFill=0;entryX=0.181;entryY=0.041;entryDx=0;entryDy=0;entryPerimeter=0;" edge="1" parent="1" source="YVUL6heoj1yk4s0uGR53-55" target="YVUL6heoj1yk4s0uGR53-17">
          <mxGeometry relative="1" as="geometry">
            <mxPoint x="-40" y="640" as="targetPoint" />
          </mxGeometry>
        </mxCell>
        <mxCell id="YVUL6heoj1yk4s0uGR53-74" style="edgeStyle=orthogonalEdgeStyle;rounded=0;orthogonalLoop=1;jettySize=auto;html=1;exitX=0.5;exitY=0;exitDx=0;exitDy=0;entryX=0.427;entryY=0.993;entryDx=0;entryDy=0;entryPerimeter=0;endArrow=none;endFill=0;" edge="1" parent="1" source="YVUL6heoj1yk4s0uGR53-53" target="YVUL6heoj1yk4s0uGR53-16">
          <mxGeometry relative="1" as="geometry" />
        </mxCell>
        <mxCell id="YVUL6heoj1yk4s0uGR53-75" value="" style="endArrow=none;html=1;rounded=0;entryX=0;entryY=0.25;entryDx=0;entryDy=0;exitX=1;exitY=0.5;exitDx=0;exitDy=0;" edge="1" parent="1" source="YVUL6heoj1yk4s0uGR53-45" target="YVUL6heoj1yk4s0uGR53-17">
          <mxGeometry width="50" height="50" relative="1" as="geometry">
            <mxPoint x="-180" y="590" as="sourcePoint" />
            <mxPoint x="320" y="730" as="targetPoint" />
          </mxGeometry>
        </mxCell>
        <mxCell id="YVUL6heoj1yk4s0uGR53-76" value="" style="endArrow=none;html=1;rounded=0;exitX=1;exitY=0.5;exitDx=0;exitDy=0;entryX=0;entryY=0.75;entryDx=0;entryDy=0;" edge="1" parent="1" source="YVUL6heoj1yk4s0uGR53-48" target="YVUL6heoj1yk4s0uGR53-17">
          <mxGeometry width="50" height="50" relative="1" as="geometry">
            <mxPoint x="-199" y="608" as="sourcePoint" />
            <mxPoint x="-80" y="680" as="targetPoint" />
          </mxGeometry>
        </mxCell>
        <mxCell id="YVUL6heoj1yk4s0uGR53-77" value="" style="endArrow=none;html=1;rounded=0;exitX=1;exitY=0.5;exitDx=0;exitDy=0;entryX=0;entryY=0.75;entryDx=0;entryDy=0;" edge="1" parent="1" source="YVUL6heoj1yk4s0uGR53-47" target="YVUL6heoj1yk4s0uGR53-17">
          <mxGeometry width="50" height="50" relative="1" as="geometry">
            <mxPoint x="-189" y="618" as="sourcePoint" />
            <mxPoint x="-70" y="690" as="targetPoint" />
          </mxGeometry>
        </mxCell>
        <mxCell id="YVUL6heoj1yk4s0uGR53-80" value="VoziloID" style="ellipse;whiteSpace=wrap;html=1;" vertex="1" parent="1">
          <mxGeometry x="270" y="440" width="90" height="50" as="geometry" />
        </mxCell>
        <mxCell id="YVUL6heoj1yk4s0uGR53-82" value="Datum" style="ellipse;whiteSpace=wrap;html=1;" vertex="1" parent="1">
          <mxGeometry x="810" y="430" width="90" height="50" as="geometry" />
        </mxCell>
        <mxCell id="YVUL6heoj1yk4s0uGR53-83" value="VoziloID" style="ellipse;whiteSpace=wrap;html=1;" vertex="1" parent="1">
          <mxGeometry x="1450" y="545" width="90" height="50" as="geometry" />
        </mxCell>
        <mxCell id="YVUL6heoj1yk4s0uGR53-84" value="KorisnikID" style="ellipse;whiteSpace=wrap;html=1;" vertex="1" parent="1">
          <mxGeometry x="880" y="585" width="90" height="50" as="geometry" />
        </mxCell>
        <mxCell id="YVUL6heoj1yk4s0uGR53-85" value="VoziloID" style="ellipse;whiteSpace=wrap;html=1;" vertex="1" parent="1">
          <mxGeometry x="2170" y="605" width="90" height="50" as="geometry" />
        </mxCell>
        <mxCell id="YVUL6heoj1yk4s0uGR53-86" value="VoziloID" style="ellipse;whiteSpace=wrap;html=1;" vertex="1" parent="1">
          <mxGeometry x="1580" y="665" width="90" height="50" as="geometry" />
        </mxCell>
        <mxCell id="YVUL6heoj1yk4s0uGR53-87" value="Status" style="ellipse;whiteSpace=wrap;html=1;" vertex="1" parent="1">
          <mxGeometry x="900" y="510" width="90" height="50" as="geometry" />
        </mxCell>
        <mxCell id="YVUL6heoj1yk4s0uGR53-88" value="VoziloID" style="ellipse;whiteSpace=wrap;html=1;" vertex="1" parent="1">
          <mxGeometry x="775" y="608" width="90" height="50" as="geometry" />
        </mxCell>
        <mxCell id="YVUL6heoj1yk4s0uGR53-89" value="" style="endArrow=none;html=1;rounded=0;exitX=0.5;exitY=0;exitDx=0;exitDy=0;entryX=0.5;entryY=1;entryDx=0;entryDy=0;" edge="1" parent="1" source="YVUL6heoj1yk4s0uGR53-88" target="YVUL6heoj1yk4s0uGR53-39">
          <mxGeometry width="50" height="50" relative="1" as="geometry">
            <mxPoint x="490" y="530" as="sourcePoint" />
            <mxPoint x="540" y="480" as="targetPoint" />
          </mxGeometry>
        </mxCell>
        <mxCell id="YVUL6heoj1yk4s0uGR53-91" value="" style="endArrow=none;html=1;rounded=0;exitX=0.5;exitY=0;exitDx=0;exitDy=0;entryX=0;entryY=1;entryDx=0;entryDy=0;" edge="1" parent="1" source="YVUL6heoj1yk4s0uGR53-39" target="YVUL6heoj1yk4s0uGR53-82">
          <mxGeometry width="50" height="50" relative="1" as="geometry">
            <mxPoint x="830" y="660" as="sourcePoint" />
            <mxPoint x="830" y="580" as="targetPoint" />
          </mxGeometry>
        </mxCell>
        <mxCell id="YVUL6heoj1yk4s0uGR53-92" value="" style="endArrow=none;html=1;rounded=0;exitX=1;exitY=0.5;exitDx=0;exitDy=0;entryX=0;entryY=0.5;entryDx=0;entryDy=0;" edge="1" parent="1" source="YVUL6heoj1yk4s0uGR53-39" target="YVUL6heoj1yk4s0uGR53-87">
          <mxGeometry width="50" height="50" relative="1" as="geometry">
            <mxPoint x="840" y="670" as="sourcePoint" />
            <mxPoint x="840" y="590" as="targetPoint" />
          </mxGeometry>
        </mxCell>
        <mxCell id="YVUL6heoj1yk4s0uGR53-93" value="" style="endArrow=none;html=1;rounded=0;exitX=1;exitY=1;exitDx=0;exitDy=0;entryX=0;entryY=0.5;entryDx=0;entryDy=0;" edge="1" parent="1" source="YVUL6heoj1yk4s0uGR53-39" target="YVUL6heoj1yk4s0uGR53-84">
          <mxGeometry width="50" height="50" relative="1" as="geometry">
            <mxPoint x="850" y="680" as="sourcePoint" />
            <mxPoint x="850" y="600" as="targetPoint" />
          </mxGeometry>
        </mxCell>
        <mxCell id="YVUL6heoj1yk4s0uGR53-94" value="Pripada" style="rhombus;whiteSpace=wrap;html=1;" vertex="1" parent="1">
          <mxGeometry x="590" y="510" width="80" height="60" as="geometry" />
        </mxCell>
        <mxCell id="YVUL6heoj1yk4s0uGR53-95" value="Naručuje" style="rhombus;whiteSpace=wrap;html=1;" vertex="1" parent="1">
          <mxGeometry x="565" y="690" width="80" height="60" as="geometry" />
        </mxCell>
        <mxCell id="YVUL6heoj1yk4s0uGR53-97" value="" style="endArrow=none;html=1;rounded=0;exitX=0;exitY=0.5;exitDx=0;exitDy=0;entryX=1;entryY=0.5;entryDx=0;entryDy=0;" edge="1" parent="1" source="YVUL6heoj1yk4s0uGR53-94" target="YVUL6heoj1yk4s0uGR53-16">
          <mxGeometry width="50" height="50" relative="1" as="geometry">
            <mxPoint x="490" y="610" as="sourcePoint" />
            <mxPoint x="540" y="560" as="targetPoint" />
          </mxGeometry>
        </mxCell>
        <mxCell id="YVUL6heoj1yk4s0uGR53-98" value="" style="endArrow=none;html=1;rounded=0;exitX=1;exitY=0.5;exitDx=0;exitDy=0;entryX=0;entryY=0.5;entryDx=0;entryDy=0;" edge="1" parent="1" source="YVUL6heoj1yk4s0uGR53-94" target="YVUL6heoj1yk4s0uGR53-39">
          <mxGeometry width="50" height="50" relative="1" as="geometry">
            <mxPoint x="600" y="550" as="sourcePoint" />
            <mxPoint x="530" y="550" as="targetPoint" />
          </mxGeometry>
        </mxCell>
        <mxCell id="YVUL6heoj1yk4s0uGR53-99" value="" style="endArrow=none;html=1;rounded=0;exitX=1;exitY=0.25;exitDx=0;exitDy=0;entryX=0;entryY=1;entryDx=0;entryDy=0;" edge="1" parent="1" source="YVUL6heoj1yk4s0uGR53-2" target="YVUL6heoj1yk4s0uGR53-95">
          <mxGeometry width="50" height="50" relative="1" as="geometry">
            <mxPoint x="490" y="690" as="sourcePoint" />
            <mxPoint x="540" y="640" as="targetPoint" />
          </mxGeometry>
        </mxCell>
        <mxCell id="YVUL6heoj1yk4s0uGR53-100" value="" style="endArrow=none;html=1;rounded=0;exitX=0;exitY=1;exitDx=0;exitDy=0;entryX=1;entryY=0;entryDx=0;entryDy=0;" edge="1" parent="1" source="YVUL6heoj1yk4s0uGR53-39" target="YVUL6heoj1yk4s0uGR53-95">
          <mxGeometry width="50" height="50" relative="1" as="geometry">
            <mxPoint x="525" y="805" as="sourcePoint" />
            <mxPoint x="595" y="745" as="targetPoint" />
          </mxGeometry>
        </mxCell>
        <mxCell id="YVUL6heoj1yk4s0uGR53-101" value="" style="endArrow=none;html=1;rounded=0;exitX=1;exitY=0.5;exitDx=0;exitDy=0;entryX=0;entryY=0.25;entryDx=0;entryDy=0;" edge="1" parent="1" source="YVUL6heoj1yk4s0uGR53-80" target="YVUL6heoj1yk4s0uGR53-16">
          <mxGeometry width="50" height="50" relative="1" as="geometry">
            <mxPoint x="490" y="690" as="sourcePoint" />
            <mxPoint x="540" y="640" as="targetPoint" />
          </mxGeometry>
        </mxCell>
        <mxCell id="YVUL6heoj1yk4s0uGR53-102" value="1" style="text;html=1;align=center;verticalAlign=middle;resizable=0;points=[];autosize=1;strokeColor=none;fillColor=none;" vertex="1" parent="1">
          <mxGeometry x="115" y="358" width="30" height="30" as="geometry" />
        </mxCell>
        <mxCell id="YVUL6heoj1yk4s0uGR53-103" value="N" style="text;html=1;align=center;verticalAlign=middle;resizable=0;points=[];autosize=1;strokeColor=none;fillColor=none;" vertex="1" parent="1">
          <mxGeometry x="345" y="348" width="30" height="30" as="geometry" />
        </mxCell>
        <mxCell id="YVUL6heoj1yk4s0uGR53-104" value="N" style="text;html=1;align=center;verticalAlign=middle;resizable=0;points=[];autosize=1;strokeColor=none;fillColor=none;" vertex="1" parent="1">
          <mxGeometry x="425" y="378" width="30" height="30" as="geometry" />
        </mxCell>
        <mxCell id="YVUL6heoj1yk4s0uGR53-105" value="1" style="text;html=1;align=center;verticalAlign=middle;resizable=0;points=[];autosize=1;strokeColor=none;fillColor=none;" vertex="1" parent="1">
          <mxGeometry x="425" y="468" width="30" height="30" as="geometry" />
        </mxCell>
        <mxCell id="YVUL6heoj1yk4s0uGR53-106" value="1" style="text;html=1;align=center;verticalAlign=middle;resizable=0;points=[];autosize=1;strokeColor=none;fillColor=none;" vertex="1" parent="1">
          <mxGeometry x="565" y="748" width="30" height="30" as="geometry" />
        </mxCell>
        <mxCell id="YVUL6heoj1yk4s0uGR53-107" value="N" style="text;html=1;align=center;verticalAlign=middle;resizable=0;points=[];autosize=1;strokeColor=none;fillColor=none;" vertex="1" parent="1">
          <mxGeometry x="735" y="598" width="30" height="30" as="geometry" />
        </mxCell>
        <mxCell id="YVUL6heoj1yk4s0uGR53-108" value="N" style="text;html=1;align=center;verticalAlign=middle;resizable=0;points=[];autosize=1;strokeColor=none;fillColor=none;" vertex="1" parent="1">
          <mxGeometry x="655" y="538" width="30" height="30" as="geometry" />
        </mxCell>
        <mxCell id="YVUL6heoj1yk4s0uGR53-109" value="1" style="text;html=1;align=center;verticalAlign=middle;resizable=0;points=[];autosize=1;strokeColor=none;fillColor=none;" vertex="1" parent="1">
          <mxGeometry x="535" y="538" width="30" height="30" as="geometry" />
        </mxCell>
        <mxCell id="YVUL6heoj1yk4s0uGR53-110" value="1" style="text;html=1;align=center;verticalAlign=middle;resizable=0;points=[];autosize=1;strokeColor=none;fillColor=none;" vertex="1" parent="1">
          <mxGeometry x="425" y="698" width="30" height="30" as="geometry" />
        </mxCell>
        <mxCell id="YVUL6heoj1yk4s0uGR53-111" value="N" style="text;html=1;align=center;verticalAlign=middle;resizable=0;points=[];autosize=1;strokeColor=none;fillColor=none;" vertex="1" parent="1">
          <mxGeometry x="420" y="585" width="30" height="30" as="geometry" />
        </mxCell>
        <mxCell id="YVUL6heoj1yk4s0uGR53-112" value="Kontrolira status računa" style="rhombus;whiteSpace=wrap;html=1;" vertex="1" parent="1">
          <mxGeometry x="-90" y="160" width="140" height="70" as="geometry" />
        </mxCell>
        <mxCell id="YVUL6heoj1yk4s0uGR53-114" style="edgeStyle=orthogonalEdgeStyle;rounded=0;orthogonalLoop=1;jettySize=auto;html=1;exitX=0.5;exitY=1;exitDx=0;exitDy=0;entryX=0.586;entryY=0.039;entryDx=0;entryDy=0;entryPerimeter=0;endArrow=none;endFill=0;" edge="1" parent="1" source="YVUL6heoj1yk4s0uGR53-112" target="YVUL6heoj1yk4s0uGR53-1">
          <mxGeometry relative="1" as="geometry" />
        </mxCell>
        <mxCell id="YVUL6heoj1yk4s0uGR53-115" value="1" style="text;html=1;align=center;verticalAlign=middle;resizable=0;points=[];autosize=1;strokeColor=none;fillColor=none;" vertex="1" parent="1">
          <mxGeometry x="-55" y="140" width="30" height="30" as="geometry" />
        </mxCell>
        <mxCell id="YVUL6heoj1yk4s0uGR53-116" value="N" style="text;html=1;align=center;verticalAlign=middle;resizable=0;points=[];autosize=1;strokeColor=none;fillColor=none;" vertex="1" parent="1">
          <mxGeometry x="-55" y="228" width="30" height="30" as="geometry" />
        </mxCell>
        <mxCell id="YVUL6heoj1yk4s0uGR53-117" value="1" style="text;html=1;align=center;verticalAlign=middle;resizable=0;points=[];autosize=1;strokeColor=none;fillColor=none;" vertex="1" parent="1">
          <mxGeometry x="185" y="758" width="30" height="30" as="geometry" />
        </mxCell>
        <mxCell id="YVUL6heoj1yk4s0uGR53-118" value="N" style="text;html=1;align=center;verticalAlign=middle;resizable=0;points=[];autosize=1;strokeColor=none;fillColor=none;" vertex="1" parent="1">
          <mxGeometry x="75" y="758" width="30" height="30" as="geometry" />
        </mxCell>
        <mxCell id="YVUL6heoj1yk4s0uGR53-119" value="1" style="text;html=1;align=center;verticalAlign=middle;resizable=0;points=[];autosize=1;strokeColor=none;fillColor=none;" vertex="1" parent="1">
          <mxGeometry x="15" y="468" width="30" height="30" as="geometry" />
        </mxCell>
        <mxCell id="YVUL6heoj1yk4s0uGR53-121" value="N" style="text;html=1;align=center;verticalAlign=middle;resizable=0;points=[];autosize=1;strokeColor=none;fillColor=none;" vertex="1" parent="1">
          <mxGeometry x="25" y="608" width="30" height="30" as="geometry" />
        </mxCell>
        <mxCell id="YVUL6heoj1yk4s0uGR53-122" value="1" style="text;html=1;align=center;verticalAlign=middle;resizable=0;points=[];autosize=1;strokeColor=none;fillColor=none;" vertex="1" parent="1">
          <mxGeometry x="-65" y="608" width="30" height="30" as="geometry" />
        </mxCell>
        <mxCell id="YVUL6heoj1yk4s0uGR53-123" value="N" style="text;html=1;align=center;verticalAlign=middle;resizable=0;points=[];autosize=1;strokeColor=none;fillColor=none;" vertex="1" parent="1">
          <mxGeometry x="-75" y="458" width="30" height="30" as="geometry" />
        </mxCell>
        <mxCell id="YVUL6heoj1yk4s0uGR53-124" value="1" style="text;html=1;align=center;verticalAlign=middle;resizable=0;points=[];autosize=1;strokeColor=none;fillColor=none;" vertex="1" parent="1">
          <mxGeometry x="85" y="840" width="30" height="30" as="geometry" />
        </mxCell>
        <mxCell id="YVUL6heoj1yk4s0uGR53-125" value="N" style="text;html=1;align=center;verticalAlign=middle;resizable=0;points=[];autosize=1;strokeColor=none;fillColor=none;" vertex="1" parent="1">
          <mxGeometry x="195" y="828" width="30" height="30" as="geometry" />
        </mxCell>
        <mxCell id="YVUL6heoj1yk4s0uGR53-126" value="Ime" style="ellipse;whiteSpace=wrap;html=1;" vertex="1" parent="1">
          <mxGeometry x="30" y="-30" width="90" height="50" as="geometry" />
        </mxCell>
        <mxCell id="YVUL6heoj1yk4s0uGR53-133" style="edgeStyle=orthogonalEdgeStyle;rounded=0;orthogonalLoop=1;jettySize=auto;html=1;exitX=0.5;exitY=1;exitDx=0;exitDy=0;entryX=0.5;entryY=0;entryDx=0;entryDy=0;endArrow=none;endFill=0;" edge="1" parent="1" source="YVUL6heoj1yk4s0uGR53-127" target="YVUL6heoj1yk4s0uGR53-24">
          <mxGeometry relative="1" as="geometry" />
        </mxCell>
        <mxCell id="YVUL6heoj1yk4s0uGR53-127" value="Prezime" style="ellipse;whiteSpace=wrap;html=1;" vertex="1" parent="1">
          <mxGeometry x="-65" y="-70" width="90" height="50" as="geometry" />
        </mxCell>
        <mxCell id="YVUL6heoj1yk4s0uGR53-132" style="edgeStyle=orthogonalEdgeStyle;rounded=0;orthogonalLoop=1;jettySize=auto;html=1;exitX=1;exitY=1;exitDx=0;exitDy=0;entryX=0;entryY=0;entryDx=0;entryDy=0;endArrow=none;endFill=0;" edge="1" parent="1" source="YVUL6heoj1yk4s0uGR53-128" target="YVUL6heoj1yk4s0uGR53-24">
          <mxGeometry relative="1" as="geometry" />
        </mxCell>
        <mxCell id="YVUL6heoj1yk4s0uGR53-128" value="ID" style="ellipse;whiteSpace=wrap;html=1;" vertex="1" parent="1">
          <mxGeometry x="-170" y="-30" width="90" height="50" as="geometry" />
        </mxCell>
        <mxCell id="YVUL6heoj1yk4s0uGR53-129" value="Email" style="ellipse;whiteSpace=wrap;html=1;" vertex="1" parent="1">
          <mxGeometry x="95" y="35" width="90" height="50" as="geometry" />
        </mxCell>
        <mxCell id="YVUL6heoj1yk4s0uGR53-130" value="AdminActive" style="ellipse;whiteSpace=wrap;html=1;" vertex="1" parent="1">
          <mxGeometry x="-260" y="488" width="90" height="50" as="geometry" />
        </mxCell>
        <mxCell id="YVUL6heoj1yk4s0uGR53-134" style="edgeStyle=orthogonalEdgeStyle;rounded=0;orthogonalLoop=1;jettySize=auto;html=1;exitX=0;exitY=1;exitDx=0;exitDy=0;entryX=0.848;entryY=-0.018;entryDx=0;entryDy=0;entryPerimeter=0;endArrow=none;endFill=0;" edge="1" parent="1" source="YVUL6heoj1yk4s0uGR53-126" target="YVUL6heoj1yk4s0uGR53-24">
          <mxGeometry relative="1" as="geometry" />
        </mxCell>
        <mxCell id="YVUL6heoj1yk4s0uGR53-135" style="edgeStyle=orthogonalEdgeStyle;rounded=0;orthogonalLoop=1;jettySize=auto;html=1;exitX=0;exitY=0.5;exitDx=0;exitDy=0;entryX=1;entryY=0.422;entryDx=0;entryDy=0;entryPerimeter=0;endArrow=none;endFill=0;" edge="1" parent="1" source="YVUL6heoj1yk4s0uGR53-129" target="YVUL6heoj1yk4s0uGR53-24">
          <mxGeometry relative="1" as="geometry" />
        </mxCell>
        <mxCell id="YVUL6heoj1yk4s0uGR53-136" value="" style="endArrow=none;html=1;rounded=0;exitX=1;exitY=0;exitDx=0;exitDy=0;entryX=0.083;entryY=0.917;entryDx=0;entryDy=0;entryPerimeter=0;" edge="1" parent="1" source="YVUL6heoj1yk4s0uGR53-130" target="YVUL6heoj1yk4s0uGR53-1">
          <mxGeometry width="50" height="50" relative="1" as="geometry">
            <mxPoint x="40" y="480" as="sourcePoint" />
            <mxPoint x="90" y="430" as="targetPoint" />
          </mxGeometry>
        </mxCell>
        <mxCell id="YVUL6heoj1yk4s0uGR53-139" style="edgeStyle=orthogonalEdgeStyle;rounded=0;orthogonalLoop=1;jettySize=auto;html=1;exitX=1;exitY=0.5;exitDx=0;exitDy=0;entryX=0;entryY=0.75;entryDx=0;entryDy=0;endArrow=none;endFill=0;" edge="1" parent="1" source="YVUL6heoj1yk4s0uGR53-138" target="YVUL6heoj1yk4s0uGR53-16">
          <mxGeometry relative="1" as="geometry" />
        </mxCell>
        <mxCell id="YVUL6heoj1yk4s0uGR53-138" value="NarudzbaID" style="ellipse;whiteSpace=wrap;html=1;" vertex="1" parent="1">
          <mxGeometry x="255" y="525" width="90" height="50" as="geometry" />
        </mxCell>
      </root>
    </mxGraphModel>
  </diagram>
</mxfile>
